<mxfile host="app.diagrams.net" agent="Mozilla/5.0 (Windows NT 10.0; Win64; x64; rv:131.0) Gecko/20100101 Firefox/131.0" border="50" scale="3" compressed="false" locked="false" version="24.7.12">
  <diagram name="Blank" id="YmL12bMKpDGza6XwsDPr">
    <mxGraphModel dx="928" dy="502" grid="0" gridSize="10" guides="1" tooltips="1" connect="1" arrows="1" fold="1" page="0" pageScale="1" pageWidth="827" pageHeight="1169" background="none" math="1" shadow="0">
      <root>
        <mxCell id="X5NqExCQtvZxIxQ7pmgY-0" />
        <mxCell id="1" parent="X5NqExCQtvZxIxQ7pmgY-0" />
        <mxCell id="Gr0Zq-AI6Quabplr0KPa-179" value="CIELO" style="swimlane;html=1;startSize=20;horizontal=1;containerType=tree;labelBackgroundColor=none;strokeColor=#D4E1F5;strokeWidth=1;fillColor=none;fontFamily=Comic Sans MS;fontSize=9;swimlaneLine=0;dashed=1;collapsible=0;" parent="1" vertex="1">
          <mxGeometry x="58" y="47" width="659" height="441" as="geometry" />
        </mxCell>
        <mxCell id="qNdGoGTaMGI7EFYTOfk9-1" value="API" style="ellipse;whiteSpace=wrap;html=1;" vertex="1" parent="Gr0Zq-AI6Quabplr0KPa-179">
          <mxGeometry x="286.5" y="33" width="86" height="36" as="geometry" />
        </mxCell>
        <mxCell id="qNdGoGTaMGI7EFYTOfk9-2" value="" style="edgeStyle=orthogonalEdgeStyle;rounded=0;orthogonalLoop=1;jettySize=auto;html=1;" edge="1" source="qNdGoGTaMGI7EFYTOfk9-1" target="qNdGoGTaMGI7EFYTOfk9-3" parent="Gr0Zq-AI6Quabplr0KPa-179">
          <mxGeometry relative="1" as="geometry" />
        </mxCell>
        <mxCell id="qNdGoGTaMGI7EFYTOfk9-3" value="BIN" style="ellipse;whiteSpace=wrap;html=1;" vertex="1" parent="Gr0Zq-AI6Quabplr0KPa-179">
          <mxGeometry x="286.5" y="109" width="86" height="36" as="geometry" />
        </mxCell>
        <mxCell id="qNdGoGTaMGI7EFYTOfk9-5" value="ZERO AUTH" style="ellipse;whiteSpace=wrap;html=1;" vertex="1" parent="Gr0Zq-AI6Quabplr0KPa-179">
          <mxGeometry x="286.5" y="182" width="86" height="39" as="geometry" />
        </mxCell>
        <mxCell id="qNdGoGTaMGI7EFYTOfk9-12" style="edgeStyle=orthogonalEdgeStyle;rounded=0;orthogonalLoop=1;jettySize=auto;html=1;entryX=0.979;entryY=0.547;entryDx=0;entryDy=0;entryPerimeter=0;" edge="1" parent="Gr0Zq-AI6Quabplr0KPa-179" target="qNdGoGTaMGI7EFYTOfk9-5">
          <mxGeometry relative="1" as="geometry">
            <mxPoint x="500.5" y="149" as="sourcePoint" />
            <mxPoint x="389" y="201.5" as="targetPoint" />
            <Array as="points">
              <mxPoint x="486" y="149" />
              <mxPoint x="486" y="203" />
            </Array>
          </mxGeometry>
        </mxCell>
        <mxCell id="qNdGoGTaMGI7EFYTOfk9-9" value="3DS" style="ellipse;whiteSpace=wrap;html=1;" vertex="1" parent="Gr0Zq-AI6Quabplr0KPa-179">
          <mxGeometry x="443" y="105" width="82" height="44" as="geometry" />
        </mxCell>
        <mxCell id="qNdGoGTaMGI7EFYTOfk9-8" style="edgeStyle=orthogonalEdgeStyle;rounded=0;orthogonalLoop=1;jettySize=auto;html=1;exitX=1;exitY=0.5;exitDx=0;exitDy=0;" edge="1" parent="Gr0Zq-AI6Quabplr0KPa-179" source="qNdGoGTaMGI7EFYTOfk9-3" target="qNdGoGTaMGI7EFYTOfk9-9">
          <mxGeometry relative="1" as="geometry">
            <mxPoint x="439.55172413793116" y="127.20689655172418" as="targetPoint" />
          </mxGeometry>
        </mxCell>
        <mxCell id="qNdGoGTaMGI7EFYTOfk9-10" style="edgeStyle=orthogonalEdgeStyle;rounded=0;orthogonalLoop=1;jettySize=auto;html=1;exitX=1;exitY=0.5;exitDx=0;exitDy=0;" edge="1" target="qNdGoGTaMGI7EFYTOfk9-11" source="qNdGoGTaMGI7EFYTOfk9-9" parent="Gr0Zq-AI6Quabplr0KPa-179">
          <mxGeometry relative="1" as="geometry">
            <mxPoint x="508.55172413793116" y="171.20689655172418" as="targetPoint" />
            <mxPoint x="442" y="171" as="sourcePoint" />
          </mxGeometry>
        </mxCell>
        <mxCell id="qNdGoGTaMGI7EFYTOfk9-11" value="Antifraud" style="ellipse;whiteSpace=wrap;html=1;" vertex="1" parent="Gr0Zq-AI6Quabplr0KPa-179">
          <mxGeometry x="565" y="105" width="82" height="44" as="geometry" />
        </mxCell>
      </root>
    </mxGraphModel>
  </diagram>
</mxfile>
